<svg id="visual" viewBox="0 0 900 300" width="900" height="300" xmlns="http://www.w3.org/2000/svg" xmlns:xlink="http://www.w3.org/1999/xlink" version="1.1"><rect x="0" y="0" width="900" height="300" fill="#202731"></rect><path d="M0 101L21.5 96.8C43 92.7 86 84.3 128.8 82.3C171.7 80.3 214.3 84.7 257.2 91.2C300 97.7 343 106.3 385.8 110.2C428.7 114 471.3 113 514.2 114.2C557 115.3 600 118.7 642.8 117.3C685.7 116 728.3 110 771.2 106.7C814 103.3 857 102.7 878.5 102.3L900 102L900 0L878.5 0C857 0 814 0 771.2 0C728.3 0 685.7 0 642.8 0C600 0 557 0 514.2 0C471.3 0 428.7 0 385.8 0C343 0 300 0 257.2 0C214.3 0 171.7 0 128.8 0C86 0 43 0 21.5 0L0 0Z" fill="#ff6f61"></path><path d="M0 82L21.5 83.5C43 85 86 88 128.8 88.3C171.7 88.7 214.3 86.3 257.2 87.2C300 88 343 92 385.8 92C428.7 92 471.3 88 514.2 86.5C557 85 600 86 642.8 83.8C685.7 81.7 728.3 76.3 771.2 75C814 73.7 857 76.3 878.5 77.7L900 79L900 0L878.5 0C857 0 814 0 771.2 0C728.3 0 685.7 0 642.8 0C600 0 557 0 514.2 0C471.3 0 428.7 0 385.8 0C343 0 300 0 257.2 0C214.3 0 171.7 0 128.8 0C86 0 43 0 21.5 0L0 0Z" fill="#f76455"></path><path d="M0 58L21.5 61.2C43 64.3 86 70.7 128.8 71.2C171.7 71.7 214.3 66.3 257.2 60.8C300 55.3 343 49.7 385.8 48.5C428.7 47.3 471.3 50.7 514.2 54.2C557 57.7 600 61.3 642.8 63.3C685.7 65.3 728.3 65.7 771.2 67.7C814 69.7 857 73.3 878.5 75.2L900 77L900 0L878.5 0C857 0 814 0 771.2 0C728.3 0 685.7 0 642.8 0C600 0 557 0 514.2 0C471.3 0 428.7 0 385.8 0C343 0 300 0 257.2 0C214.3 0 171.7 0 128.8 0C86 0 43 0 21.5 0L0 0Z" fill="#ee5849"></path><path d="M0 51L21.5 47.2C43 43.3 86 35.7 128.8 33.2C171.7 30.7 214.3 33.3 257.2 35.3C300 37.3 343 38.7 385.8 38.2C428.7 37.7 471.3 35.3 514.2 38.2C557 41 600 49 642.8 50.2C685.7 51.3 728.3 45.7 771.2 41.8C814 38 857 36 878.5 35L900 34L900 0L878.5 0C857 0 814 0 771.2 0C728.3 0 685.7 0 642.8 0C600 0 557 0 514.2 0C471.3 0 428.7 0 385.8 0C343 0 300 0 257.2 0C214.3 0 171.7 0 128.8 0C86 0 43 0 21.5 0L0 0Z" fill="#e64c3d"></path><path d="M0 15L21.5 15.2C43 15.3 86 15.7 128.8 17.5C171.7 19.3 214.3 22.7 257.2 24.2C300 25.7 343 25.3 385.8 25.3C428.7 25.3 471.3 25.7 514.2 24.7C557 23.7 600 21.3 642.8 21.3C685.7 21.3 728.3 23.7 771.2 25.7C814 27.7 857 29.3 878.5 30.2L900 31L900 0L878.5 0C857 0 814 0 771.2 0C728.3 0 685.7 0 642.8 0C600 0 557 0 514.2 0C471.3 0 428.7 0 385.8 0C343 0 300 0 257.2 0C214.3 0 171.7 0 128.8 0C86 0 43 0 21.5 0L0 0Z" fill="#dd3f31"></path></svg>